<?xml version="1.0" standalone="no"?>
<!DOCTYPE svg PUBLIC "-//W3C//DTD SVG 20010904//EN"
 "http://www.w3.org/TR/2001/REC-SVG-20010904/DTD/svg10.dtd">
<svg version="1.0" xmlns="http://www.w3.org/2000/svg"
 width="16.000000pt" height="16.000000pt" viewBox="0 0 16.000000 16.000000"
 preserveAspectRatio="xMidYMid meet">
<metadata>
Created by potrace 1.11, written by Peter Selinger 2001-2013
</metadata>
<g transform="translate(0.000000,16.000000) scale(0.003125,-0.003125)"
fill="#000000" stroke="none">
<path d="M830 4241 c-69 -21 -121 -65 -156 -131 -18 -34 -19 -93 -22 -1524 -3
-1642 -6 -1557 59 -1630 16 -19 49 -44 73 -55 40 -20 59 -21 401 -21 345 0
360 1 403 21 51 25 88 77 98 137 13 84 -48 178 -133 201 -21 6 -129 11 -240
11 l-203 0 0 1315 0 1315 223 0 c212 0 224 1 262 23 145 82 113 299 -51 337
-47 11 -678 12 -714 1z"/>
<path d="M3568 4240 c-100 -30 -153 -120 -134 -225 7 -37 53 -97 90 -118 14
-8 98 -14 251 -17 l230 -5 3 -1312 2 -1312 -222 -3 c-209 -3 -226 -4 -265 -25
-27 -15 -52 -39 -69 -68 -52 -90 -18 -206 76 -256 32 -18 63 -19 395 -19 401
0 405 1 472 70 68 70 64 -44 61 1630 l-3 1515 -27 41 c-15 23 -41 52 -58 64
-65 46 -102 50 -449 49 -179 0 -338 -4 -353 -9z"/>
<path d="M2021 3728 c-64 -18 -118 -64 -148 -125 l-28 -58 0 -980 0 -980 28
-57 c30 -61 74 -101 138 -123 111 -39 234 13 289 121 23 45 25 62 28 214 l3
165 92 87 c86 81 93 86 108 70 9 -9 111 -149 228 -309 117 -161 226 -304 244
-317 87 -67 240 -54 314 26 56 60 70 170 30 245 -12 24 -125 181 -250 350
-125 170 -228 312 -228 316 0 5 87 83 193 174 209 179 260 233 279 300 53 190
-145 343 -316 244 -27 -16 -194 -165 -370 -332 l-320 -304 -5 550 c-5 521 -6
552 -25 590 -54 109 -174 165 -284 133z"/>
</g>
</svg>
