<?xml version="1.0" standalone="no"?>
<!DOCTYPE svg PUBLIC "-//W3C//DTD SVG 20010904//EN"
 "http://www.w3.org/TR/2001/REC-SVG-20010904/DTD/svg10.dtd">
<svg version="1.0" xmlns="http://www.w3.org/2000/svg"
 width="16.000000pt" height="16.000000pt" viewBox="0 0 16.000000 16.000000"
 preserveAspectRatio="xMidYMid meet">
<metadata>
Created by potrace 1.11, written by Peter Selinger 2001-2013
</metadata>
<g transform="translate(0.000000,16.000000) scale(0.003125,-0.003125)"
fill="#000000" stroke="none">
<path d="M2365 5114 c-27 -2 -111 -13 -185 -24 -710 -105 -1348 -511 -1752
-1115 -202 -302 -340 -661 -400 -1040 -32 -201 -32 -549 0 -750 115 -729 511
-1352 1117 -1757 302 -202 661 -340 1040 -400 201 -32 549 -32 750 0 284 45
512 117 764 243 501 248 902 649 1150 1150 126 252 198 480 243 764 32 201 32
549 0 750 -115 729 -511 1352 -1117 1757 -299 200 -662 340 -1030 398 -127 20
-459 34 -580 24z m-575 -1232 c101 -50 108 -191 14 -253 -26 -17 -49 -19 -207
-19 l-177 0 2 -1027 3 -1028 180 -5 c148 -4 184 -8 204 -22 89 -63 79 -201
-19 -251 -32 -16 -64 -17 -321 -15 l-286 3 -40 27 c-25 16 -49 44 -62 71 l-21
44 2 1185 3 1184 27 41 c15 23 44 49 70 62 41 20 57 21 318 21 242 0 279 -2
310 -18z m2167 -14 c24 -16 49 -44 62 -70 l21 -44 0 -1174 0 -1174 -21 -44
c-13 -26 -38 -54 -62 -70 l-40 -27 -286 -3 c-257 -2 -289 -1 -321 15 -98 50
-108 188 -19 251 20 14 56 18 204 22 l180 5 3 1028 2 1027 -177 0 c-158 0
-181 2 -207 19 -94 62 -87 202 14 254 32 16 64 17 321 15 l286 -3 40 -27z
m-1709 -383 c44 -19 78 -49 100 -90 15 -26 18 -85 22 -464 l5 -435 255 242
c151 143 273 251 298 263 55 27 125 22 172 -11 38 -27 69 -90 70 -139 0 -81
-42 -128 -354 -393 l-29 -24 187 -252 c103 -139 194 -269 202 -289 30 -72 -5
-167 -76 -204 -52 -28 -147 -26 -191 4 -20 13 -107 124 -209 264 -96 133 -178
241 -182 240 -4 -1 -39 -30 -77 -64 l-69 -63 -4 -138 c-3 -132 -4 -141 -31
-180 -75 -114 -246 -110 -315 8 l-27 45 0 770 c0 424 3 782 7 797 19 64 105
127 176 128 18 0 49 -7 70 -15z"/>
</g>
</svg>
