<?xml version="1.0" standalone="no"?>
<!DOCTYPE svg PUBLIC "-//W3C//DTD SVG 20010904//EN"
 "http://www.w3.org/TR/2001/REC-SVG-20010904/DTD/svg10.dtd">
<svg version="1.0" xmlns="http://www.w3.org/2000/svg"
 width="16.000000pt" height="16.000000pt" viewBox="0 0 16.000000 16.000000"
 preserveAspectRatio="xMidYMid meet">
<metadata>
Created by potrace 1.11, written by Peter Selinger 2001-2013
</metadata>
<g transform="translate(0.000000,16.000000) scale(0.003125,-0.003125)"
fill="#000000" stroke="none">
<path d="M313 4699 c-64 -25 -137 -93 -166 -157 l-22 -47 -3 -1927 c-2 -1818
-1 -1930 15 -1978 28 -77 78 -135 152 -172 l65 -32 455 -1 c455 0 456 0 503
23 180 88 189 332 15 428 l-52 29 -250 2 c-137 2 -264 3 -282 3 l-32 0 2 1683
2 1682 265 1 c165 1 280 5 306 12 22 7 59 28 81 47 111 95 114 254 7 358 -68
66 -83 67 -574 66 -408 0 -438 -2 -487 -20z"/>
<path d="M3811 4693 c-146 -70 -181 -263 -68 -382 66 -69 89 -73 397 -75 l275
-1 0 -1682 c0 -1133 -3 -1683 -10 -1683 -5 0 -131 -1 -280 -3 -265 -2 -271 -2
-318 -27 -180 -91 -172 -348 13 -433 43 -20 63 -21 480 -22 458 -1 495 2 565
45 50 31 102 95 124 154 20 50 20 87 18 1981 l-2 1930 -24 47 c-31 63 -86 119
-147 149 l-49 24 -460 2 -460 2 -54 -26z"/>
<path d="M1910 4060 c-91 -15 -188 -90 -231 -178 l-24 -47 0 -1280 0 -1280 27
-51 c38 -72 117 -140 186 -160 151 -44 310 30 375 175 19 41 21 69 24 260 3
190 5 217 21 230 9 9 63 58 119 109 56 52 106 91 111 88 5 -3 22 -24 38 -48
16 -24 34 -48 39 -55 6 -6 35 -46 65 -88 30 -43 89 -124 130 -180 41 -57 102
-140 135 -186 145 -201 176 -239 217 -267 148 -102 364 -50 440 107 15 31 23
68 25 112 2 89 -20 135 -152 313 -278 373 -495 669 -495 676 0 5 28 32 63 61
34 30 64 56 67 59 3 3 83 72 177 153 197 169 218 189 255 243 84 121 74 268
-25 371 -86 91 -240 101 -356 24 -38 -25 -143 -121 -320 -290 -25 -24 -104
-98 -174 -165 -70 -66 -183 -174 -250 -238 -67 -64 -124 -115 -126 -113 -2 2
-4 320 -5 707 l-1 703 -26 55 c-59 125 -199 202 -329 180z"/>
</g>
</svg>
