<?xml version="1.0" encoding="UTF-8"?>
<svg width="50px" height="50px" viewBox="0 0 50 50" version="1.1" xmlns="http://www.w3.org/2000/svg" xmlns:xlink="http://www.w3.org/1999/xlink">
    <!-- Generator: Sketch 42 (36781) - http://www.bohemiancoding.com/sketch -->
    <title>shield</title>
    <desc>Created with Sketch.</desc>
    <defs></defs>
    <g id="Page-1" stroke="none" stroke-width="1" fill="none" fill-rule="evenodd">
        <g id="desktop-use-cases" transform="translate(-698.000000, -1988.000000)">
            <g id="benefits" transform="translate(0.000000, 1451.000000)">
                <g id="Group-19" transform="translate(209.000000, 257.000000)">
                    <g id="Group-5" transform="translate(489.000000, 280.000000)">
                        <g id="Group-8">
                            <path d="M7.23630338,14.9005826 C7.63076594,15.1368325 8.14228446,15.0155006 8.38655193,14.621038 C9.1129403,13.4248223 12.6855524,10.0109573 19.3625528,10.0109573 C25.7829921,10.0109573 30.3513817,13.2639371 31.1761184,14.621038 C31.3343311,14.877599 31.6079962,15.0219146 31.8902133,15.0219146 C32.0382704,15.0219146 32.1884654,14.9844994 32.324229,14.9005826 C32.7165535,14.6605912 32.8442995,14.1469346 32.6037736,13.7524721 C31.4578011,11.8651451 26.3987386,8.3406382 19.3625528,8.3406382 C11.8816612,8.3406382 7.87075739,12.2473141 6.95622428,13.7524721 C6.71837084,14.1490726 6.84344433,14.6605912 7.23630338,14.9005826 Z M11.3680047,28.4197445 C10.691325,26.0604522 10.9714041,23.5803624 12.1590678,21.4338019 C13.347266,19.2856379 15.3014057,17.7275643 17.6590946,17.0492811 C22.4653375,15.6857662 27.5366936,18.4480731 28.9857288,23.2083489 C29.0065744,23.2735582 29.031696,23.3360949 29.0691111,23.3943557 C29.1738735,23.5675343 29.2631354,23.7182639 32.2322946,26.1732321 C32.587204,26.4677428 33.1115506,26.4174996 33.4076648,26.0604522 C33.7021754,25.7055428 33.6519322,25.1795927 33.2948848,24.885082 C31.2616388,23.2046074 30.6662034,22.6738468 30.5347159,22.5594634 C28.7601689,17.0262975 22.8138329,13.8358544 17.2015607,15.4393607 C14.4098562,16.2411139 12.1029451,18.0830082 10.6977391,20.6218932 C9.29467101,23.1607782 8.9627452,26.0898498 9.76236036,28.8772783 C11.1322893,33.6396921 8.19466567,34.9615158 7.25928697,35.2517505 C6.81832273,35.3891175 6.57405527,35.8568069 6.71195681,36.2999091 C6.82473676,36.6569565 7.15452456,36.886258 7.50943396,36.886258 C7.59121279,36.886258 7.67673312,36.8739644 7.75797744,36.8488428 C10.313432,36.0513657 12.7897803,33.363889 11.3680047,28.4197445 Z M6.8354268,26.7141483 C7.29670212,26.7141483 7.6703191,26.3405313 7.6703191,25.8787215 C7.6703191,18.9702817 13.2890053,13.3515955 20.1979796,13.3515955 C26.9749319,13.3515955 29.3470522,17.1829066 31.2552248,20.2627078 C32.3787482,22.0746699 33.347266,23.6407611 34.9737559,24.1667112 C35.4227377,24.3110268 35.884013,24.0667593 36.0261906,23.6300711 C36.1678337,23.1917794 35.9278422,22.719814 35.4895505,22.5781709 C34.4456679,22.2398311 33.6252071,20.9158694 32.6748624,19.3834518 C30.6624619,16.13261 27.9060345,11.6812764 20.1979796,11.6812764 C12.3680582,11.6812764 6,18.0493345 6,25.8787215 C6,26.3405313 6.37361698,26.7141483 6.8354268,26.7141483 Z M34.4328398,19.4524026 C34.5477578,19.805174 34.8775456,20.0328719 35.2308515,20.0328719 C35.3163718,20.0328719 35.4018921,20.0205783 35.4852745,19.9954567 C35.9235662,19.8532792 36.1662302,19.3834518 36.0261906,18.9451601 C35.5814848,17.5586616 34.3243359,15.5083115 34.2703512,15.4227912 C34.0260837,15.0283286 33.5102892,14.9048586 33.1217061,15.1491261 C32.7293816,15.3912555 32.6059116,15.9049121 32.848041,16.2977711 C32.8608691,16.3122027 34.0549468,18.2583249 34.4328398,19.4524026 Z M12.1906035,8.26741141 C12.5684964,8.09423272 12.8940082,7.93120958 13.1992089,7.77299695 C14.4456679,7.13373243 15.3473729,6.6703191 19.3625528,6.6703191 C23.8764231,6.6703191 25.5387247,7.28606553 27.3009781,7.94189962 C27.6200759,8.06109359 27.9418462,8.17975306 28.280186,8.29680902 C28.3678444,8.32834465 28.4576407,8.3406382 28.5495751,8.3406382 C28.8959324,8.3406382 29.2193062,8.12363034 29.3385002,7.77673847 C29.4886953,7.34058475 29.2572559,6.86648137 28.8184296,6.71628628 C28.4950559,6.60350633 28.1882516,6.48858838 27.8793094,6.37580843 C26.0561227,5.69966326 24.1752098,5 19.3582768,5 C14.9406168,5 13.835801,5.56764124 12.4327329,6.28815009 C12.1510503,6.43246566 11.8522636,6.58693677 11.4994922,6.74354589 C11.0799081,6.93329414 10.8939013,7.42610508 11.0799081,7.84782725 C11.2717943,8.26954941 11.7667433,8.45555615 12.1906035,8.26741141 Z M7.6703191,32.5599979 C7.79539259,32.5599979 7.9231386,32.5311347 8.04393607,32.4723395 C8.45764071,32.2660217 8.62440537,31.7646587 8.41755305,31.3514886 C8.11502485,30.7501737 7.6703191,29.6539099 7.6703191,29.2193597 C7.6703191,28.7580843 7.29670212,28.3844674 6.8354268,28.3844674 C6.37361698,28.3844674 6,28.7580843 6,29.2193597 C6,30.2007055 6.77021754,31.7897803 6.92308515,32.0987225 C7.07114223,32.3889572 7.36565289,32.5599979 7.6703191,32.5599979 Z M14.5937249,27.5452991 C13.8694746,24.252766 15.5836229,21.1205837 18.5816452,20.2605698 C21.6780159,19.3770378 24.9267198,21.1665509 25.8161313,24.2629216 C26.0940724,25.2234219 26.8247368,26.3506868 29.4865573,28.7292212 C29.8313111,29.0338874 30.3593992,29.0066278 30.6662034,28.6624085 C30.9735421,28.3176546 30.9441445,27.7895665 30.5993907,27.4822278 C28.0733337,25.2255599 27.5719707,24.3297344 27.4217756,23.8016463 C26.2758031,19.8217435 22.1018761,17.5148324 18.1225079,18.6549254 C14.2639371,19.7613448 12.0468224,23.7369715 12.962959,27.9044845 C14.6503822,35.5836763 13.3910952,37.3624993 9.92752151,38.4437971 C9.48655727,38.5816986 9.24228981,39.049388 9.38019135,39.4919557 C9.4929713,39.8490032 9.8227591,40.0788391 10.1776685,40.0788391 C10.2594473,40.0788391 10.3449677,40.066011 10.426212,40.0414239 C15.2597146,38.5277139 16.3142872,35.376824 14.5937249,27.5452991 Z M21.0013363,25.6472821 C20.8719867,25.2025763 20.4171254,24.9454808 19.9681437,25.0753648 C19.5255759,25.2025763 19.2706184,25.6659896 19.3962264,26.1085574 C20.7111016,30.685499 25.7119034,34.4809984 28.7537549,36.7905821 L29.7099792,35.4163771 C26.8872735,33.2762307 22.1622748,29.691325 21.0013363,25.6472821 Z M27.8477738,38.4919023 C23.5738949,35.0326046 19.039179,30.9110588 17.7905821,26.5698327 C17.6045753,25.9268267 17.6820781,25.2506815 18.0054519,24.6637982 C18.3288257,24.0769149 18.8617243,23.6551927 19.5047303,23.4697205 C20.1498744,23.2879897 20.8281576,23.36282 21.4129029,23.6845903 C21.9997862,24.0063606 22.4215084,24.5408627 22.6069806,25.1838687 C23.1585868,27.0984553 25.1084505,29.5079908 28.5682826,32.5519803 C28.91464,32.8587845 29.4411246,32.8235074 29.7457908,32.4766155 C30.050457,32.1302582 30.0173179,31.6037736 29.670426,31.2991074 C25.7241969,27.8269817 24.5215672,25.8060292 24.2104869,24.7220589 C23.9036827,23.6493132 23.1960019,22.7615052 22.2210701,22.2211235 C21.2456037,21.6823454 20.1204768,21.5572719 19.0450585,21.8619381 C17.9717783,22.1708803 17.0845048,22.8764231 16.5441231,23.853493 C16.005345,24.8289593 15.877599,25.9562243 16.1849377,27.0273665 C17.5586082,31.8106259 22.318884,36.1598696 26.7953391,39.7843284 C26.9498103,39.9094019 27.135817,39.9703351 27.3196857,39.9703351 C27.5639532,39.9703351 27.8039446,39.8655727 27.9691058,39.6592549 C28.2609439,39.3064835 28.2048212,38.7821369 27.8477738,38.4919023 Z M25.2003848,41.2355016 C24.3692341,40.1103747 23.1147576,38.406382 21.0328719,38.406382 C18.1994762,38.406382 17.7547704,43.2334705 17.6943717,44.2003848 C17.6649741,44.6595222 18.0156075,45.0561227 18.4752793,45.0855203 C18.4918488,45.0876583 18.5105564,45.0876583 18.5276605,45.0876583 C18.9659522,45.0876583 19.3331552,44.7471805 19.3604148,44.3046128 C19.4667807,42.5781709 20.1247528,40.0767011 21.0328719,40.0767011 C22.2707788,40.0767011 23.1500347,41.2686408 23.8534395,42.227003 C24.1335186,42.607034 24.3858036,42.9432359 24.6177775,43.1730718 C24.9432893,43.4985836 25.4740499,43.4985836 25.7995617,43.1730718 C26.1250735,42.84756 26.1250735,42.3167994 25.7995617,41.9912876 C25.617831,41.8095569 25.4216687,41.5380298 25.2003848,41.2355016 Z M17.6526805,33.975894 C17.510503,33.5376022 17.0406756,33.2970763 16.6023839,33.4349778 C16.1640921,33.5750174 15.9219627,34.0469827 16.0614677,34.4852745 C16.7755626,36.7194933 15.3724945,41.1040141 13.2596077,41.7887113 C12.8213159,41.9308889 12.5813245,42.4028542 12.7229676,42.841146 C12.8357475,43.1939174 13.1655353,43.4194773 13.5183067,43.4194773 C13.6043615,43.4194773 13.6920199,43.4066492 13.7754022,43.3799241 C16.9925704,42.3339035 18.539954,36.7504944 17.6526805,33.975894 Z" id="Page-1" fill="#000000"></path>
                            <path d="M42.5508579,39.8324336 L40.042974,39.2081351 L39.9387461,38.786413 C40.5903041,38.0680421 41.0515795,37.151371 41.2440002,36.1994227 C41.6903095,35.9695868 42.0142178,35.5312951 42.0788925,35.003207 L42.2584852,33.5541718 C42.3130044,33.113742 42.1793789,32.6690363 41.8870063,32.3349725 C41.7972099,32.2302101 41.6945855,32.1425517 41.5818055,32.0677214 L41.6256347,31.1799134 L41.7785023,31.0254423 C42.208242,30.570581 42.7908493,29.5913731 41.8699022,28.1818911 C41.4316105,27.5137634 40.5320434,26.7141483 38.7238228,26.7141483 C38.1930622,26.7141483 36.9904324,26.7141483 35.8257523,27.4448127 C32.3889037,27.5640066 31.9837511,29.4181945 31.9837511,30.8148485 C31.9837511,31.0901171 32.0318563,31.6080496 32.0799615,32.0383238 C31.957026,32.1174301 31.8421081,32.2115025 31.7437597,32.3264204 C31.447111,32.6626223 31.309744,33.109466 31.3658667,33.5498958 L31.5454594,35.003207 C31.6144102,35.5457267 31.9586295,35.9989844 32.4685446,36.2202683 C32.6561548,37.1326634 33.092843,38.0119194 33.7021754,38.7131862 L33.5813779,39.2038591 L31.073494,39.8281576 C29.0461275,40.3354001 27.6264899,42.1543108 27.6264899,44.24849 C27.6264899,44.7097654 28.0001069,45.0833823 28.4613822,45.0833823 L45.1645732,45.0833823 C45.626383,45.0833823 46,44.7076273 46,44.246352 C46,42.1585868 44.5782244,40.3396761 42.5508579,39.8324336 Z" id="Path" fill="#1789FC"></path>
                        </g>
                    </g>
                </g>
            </g>
        </g>
    </g>
</svg>