<svg xmlns="http://www.w3.org/2000/svg" width="24" height="24" viewBox="0 0 24 24">
  <path fill="#302E64" fill-rule="evenodd" d="M80,0 C73.3789062,0 68,5.37890625 68,12 C68,18.5390625 73.2265625,23.859375 79.7304688,24 L79.7304688,14.4960938 L77,14.4960938 L77,11.4960938 L79.7304688,11.4960938 L79.7304688,8.49609375 C79.7304688,6.1171875 81.1835938,4.51171875 84.0664062,4.51171875 C85.3320312,4.51171875 86.2226562,4.7109375 86.2226562,4.7109375 L86.2226562,7.5 L84.3125,7.5 C83.4335938,7.5 83,7.9921875 83,8.859375 L83,11.4960938 L86,11.4960938 L85.5664062,14.4960938 L83,14.4960938 L83,23.625 C88.1796875,22.2890625 92,17.5898438 92,12 C92,5.37890625 86.6210938,0 80,0 Z" transform="translate(-68)"/>
</svg>
