<?xml version="1.0" encoding="UTF-8"?>
<svg width="50px" height="50px" viewBox="0 0 50 50" version="1.1" xmlns="http://www.w3.org/2000/svg" xmlns:xlink="http://www.w3.org/1999/xlink">
    <!-- Generator: Sketch 42 (36781) - http://www.bohemiancoding.com/sketch -->
    <title>quality</title>
    <desc>Created with Sketch.</desc>
    <defs></defs>
    <g id="Page-1" stroke="none" stroke-width="1" fill="none" fill-rule="evenodd">
        <g id="desktop-use-cases" transform="translate(-697.000000, -1743.000000)">
            <g id="benefits" transform="translate(0.000000, 1451.000000)">
                <g id="Group-19" transform="translate(209.000000, 257.000000)">
                    <g id="Group-13" transform="translate(488.000000, 35.000000)">
                        <path d="M34.3773333,30.3036735 C34.4166667,30.4976327 34.5366667,30.6680816 34.716,30.7830204 C34.87,30.8803265 35.052,30.9312653 35.242,30.9312653 C35.3153333,30.9312653 35.3906667,30.9234286 35.466,30.9084082 C38.068,30.3598367 40.6406667,29.5996735 43.1173333,28.6481633 C43.3726667,28.5508571 43.578,28.3621224 43.68,28.132898 C43.7633333,27.941551 43.768,27.7345306 43.6926667,27.5510204 C43.5233333,27.1428571 42.9946667,26.9593469 42.518,27.1428571 C40.1253333,28.0610612 37.6353333,28.7957551 35.1226667,29.3266939 C34.6226667,29.4337959 34.2893333,29.8726531 34.3773333,30.3036735 Z" id="Fill-55" fill="#000000"></path>
                        <path d="M46.2186667,18.9286531 C44.2446667,20.058449 42.1613333,21.0354286 40.0286667,21.8367347 C39.5886667,22.0026122 39.3593333,22.4721633 39.5133333,22.884898 C39.586,23.0814694 39.7366667,23.237551 39.9346667,23.3263673 C40.0466667,23.3773061 40.172,23.4027755 40.294,23.4027755 C40.4033333,23.4027755 40.5133333,23.3851429 40.6173333,23.3446531 C42.8333333,22.5126531 44.9973333,21.4971429 47.0493333,20.3216327 C47.2606667,20.2014694 47.414,20.004898 47.4713333,19.780898 C47.526,19.5738776 47.4946667,19.3596735 47.3853333,19.1833469 C47.156,18.8084898 46.63,18.6915918 46.2186667,18.9286531 Z" id="Fill-58" fill="#000000"></path>
                        <path d="M14.758,30.9338776 C14.948,30.9338776 15.1326667,30.8829388 15.284,30.7856327 C15.4633333,30.6706939 15.5833333,30.5002449 15.6226667,30.3062857 C15.7106667,29.8752653 15.3773333,29.4364082 14.88,29.3319184 C12.3646667,28.8009796 9.87466667,28.0662857 7.48466667,27.1480816 C7.008,26.9665306 6.47933333,27.1480816 6.31,27.5562449 C6.23466667,27.7397551 6.23666667,27.9441633 6.32266667,28.1374694 C6.42466667,28.3673469 6.62733333,28.5560816 6.88533333,28.6527347 C9.362,29.6022857 11.9346667,30.362449 14.5366667,30.9129796 C14.6066667,30.9260408 14.682,30.9338776 14.758,30.9338776 Z" id="Fill-59" fill="#000000"></path>
                        <path d="M9.70333333,23.4027755 C9.828,23.4027755 9.95066667,23.3773061 10.0626667,23.3263673 C10.2633333,23.237551 10.4113333,23.0788571 10.4866667,22.8829388 C10.6406667,22.469551 10.4086667,21.9973878 9.97133333,21.8315102 C7.83866667,21.0308571 5.75533333,20.0538776 3.78133333,18.9234286 C3.37,18.6889796 2.84666667,18.8032653 2.612,19.1813878 C2.50266667,19.3570612 2.47133333,19.5686531 2.526,19.7782857 C2.58333333,20.0022857 2.73933333,20.1988571 2.948,20.3190204 C5,21.4925714 7.164,22.5100408 9.38,23.3394286 C9.48466667,23.3825306 9.594,23.4027755 9.70333333,23.4027755 Z" id="Fill-62" fill="#000000"></path>
                        <path d="M39.7186667,15.3139592 L34.5153333,15.3139592 C34.63,14.043102 34.6926667,12.7324082 34.6926667,11.3851429 L34.6926667,10.5152653 L14.0286667,10.5152653 L14.0286667,11.3851429 C14.0286667,12.7324082 14.0913333,14.043102 14.206,15.3139592 L9,15.3139592 L9.182,16.3340408 C9.646,18.9155918 10.4506667,21.2829388 11.5233333,23.3622857 C11.5206667,23.4896327 11.5493333,23.6195918 11.612,23.7397551 C11.6773333,23.8625306 11.7733333,23.9644082 11.888,24.0408163 C12.2446667,24.6762449 12.6273333,25.2803265 13.0313333,25.8543673 C11.888,25.5461224 10.758,25.1941224 9.64866667,24.8009796 C9.18733333,24.6377143 8.682,24.8395102 8.52066667,25.2502857 C8.448,25.4390204 8.456,25.6506122 8.54666667,25.8445714 C8.64866667,26.0613878 8.844,26.234449 9.086,26.3213061 C10.9273333,26.9743673 12.82,27.5124898 14.7346667,27.9363265 C17.112,30.4257959 20.0313333,31.9872653 23.1846667,32.3007347 L23.1846667,36.0486531 L17.9686667,36.0486531 L17.9686667,41.4821224 L30.7526667,41.4821224 L30.7526667,36.0486531 L25.5313333,36.0486531 L25.5313333,32.3007347 C28.544,32.0022857 31.3413333,30.5635918 33.6586667,28.2654694 C33.6666667,28.2628571 33.6746667,28.2654694 33.682,28.2628571 C36.1353333,27.8089796 38.568,27.1559184 40.9113333,26.3239184 C41.1513333,26.2370612 41.3486667,26.064 41.4506667,25.8471837 C41.5413333,25.6558367 41.5493333,25.4435918 41.4766667,25.2522449 C41.318,24.8395102 40.81,24.6377143 40.3486667,24.8035918 C38.7366667,25.3750204 37.0833333,25.8569796 35.406,26.244898 C35.8073333,25.7067755 36.1873333,25.1353469 36.544,24.5358367 C36.9866667,24.4182857 37.4273333,24.2961633 37.8646667,24.165551 C38.0913333,24.0969796 38.2813333,23.941551 38.388,23.7423673 C38.4893333,23.5510204 38.508,23.3368163 38.4426667,23.1376327 C38.3226667,22.7804082 37.9606667,22.5635918 37.578,22.5890612 C38.4606667,20.7043265 39.1326667,18.6047347 39.5393333,16.3366531 L39.7186667,15.3139592 Z M32.9086667,12.2550204 C32.698,22.298449 28.87,30.6223673 24.3593333,30.6223673 C19.8486667,30.6223673 16.0206667,22.298449 15.81,12.2550204 L32.9086667,12.2550204 Z M11.1353333,17.0537143 L14.3986667,17.0537143 C15.0546667,21.9823673 16.552,26.1351837 18.5753333,28.8675918 C15.07,26.6275918 12.318,22.395102 11.1353333,17.0537143 Z M28.9766667,37.7857959 L28.9766667,39.7423673 L19.7446667,39.7423673 L19.7446667,37.7857959 L28.9766667,37.7857959 Z M30.146,28.8675918 C32.1693333,26.1351837 33.6666667,21.9823673 34.3226667,17.0537143 L37.586,17.0537143 C36.4013333,22.395102 33.6513333,26.6275918 30.146,28.8675918 Z" id="Fill-63" fill="#000000"></path>
                        <path d="M42.7186667,25.2476735 C42.81,25.2829388 42.9086667,25.3012245 43.008,25.3012245 C43.12,25.3012245 43.232,25.2783673 43.3386667,25.2346122 C43.8153333,25.0334694 44.2866667,24.826449 44.758,24.6096327 C44.9586667,24.517551 45.112,24.3542857 45.182,24.1609796 C45.242,23.995102 45.2346667,23.824 45.1586667,23.6757551 C44.9946667,23.3472653 44.552,23.2166531 44.1746667,23.3929796 C43.7186667,23.6019592 43.2606667,23.8037551 42.7966667,23.9977143 C42.414,24.1583673 42.2186667,24.5665306 42.362,24.9054694 C42.4246667,25.060898 42.552,25.1810612 42.7186667,25.2476735 Z" id="Fill-56" fill="#1789FC"></path>
                        <path d="M6.99466667,25.3038367 C7.094,25.3038367 7.19266667,25.285551 7.284,25.2502857 C7.45066667,25.1836735 7.57533333,25.0635102 7.64066667,24.9106939 C7.784,24.571102 7.58866667,24.1635918 7.206,24.0022857 C6.74466667,23.8089796 6.28666667,23.6071837 5.828,23.3982041 C5.45066667,23.2244898 5.008,23.3518367 4.844,23.6809796 C4.77066667,23.8292245 4.76333333,24.0022857 4.82,24.1681633 C4.89066667,24.3595102 5.044,24.5227755 5.24466667,24.6148571 C5.71333333,24.8316735 6.18733333,25.0380408 6.664,25.2398367 C6.768,25.2803265 6.88266667,25.3038367 6.99466667,25.3038367 Z" id="Fill-60" fill="#1789FC"></path>
                        <path d="M39.0366667,31.4008163 C36.4273333,32.132898 33.7346667,32.6631837 31.0313333,32.9773061 C30.4973333,33.0380408 30.1173333,33.4364082 30.164,33.882449 C30.1846667,34.0737959 30.2866667,34.2527347 30.4506667,34.3800816 C30.6226667,34.5152653 30.8513333,34.5890612 31.0913333,34.5890612 C31.1353333,34.5890612 31.182,34.586449 31.2266667,34.5818776 C34.0133333,34.2579592 36.794,33.7093878 39.4893333,32.9537959 C39.7706667,32.8747755 40.0053333,32.699102 40.13,32.4718367 C40.232,32.2909388 40.2553333,32.0891429 40.198,31.9056327 C40.068,31.4772245 39.5546667,31.2525714 39.0366667,31.4008163 Z" id="Fill-57" fill="#1789FC"></path>
                        <path d="M10.5106667,32.9537959 L10.5106667,32.9537959 C13.206,33.7093878 15.9866667,34.2579592 18.7733333,34.5818776 C18.818,34.586449 18.8646667,34.5890612 18.9086667,34.5890612 C19.1486667,34.5890612 19.3746667,34.5152653 19.5466667,34.3800816 C19.7106667,34.2501224 19.8153333,34.0737959 19.8333333,33.882449 C19.88,33.4364082 19.5,33.0380408 18.966,32.9773061 C16.2653333,32.6631837 13.5726667,32.132898 10.9606667,31.4008163 C10.4426667,31.2551837 9.93,31.4772245 9.79933333,31.9056327 C9.742,32.0891429 9.76533333,32.2909388 9.86733333,32.4718367 C9.99466667,32.699102 10.2293333,32.8747755 10.5106667,32.9537959 Z" id="Fill-61" fill="#1789FC"></path>
                        <path d="M24.3593333,24.0355918 L28.1093333,25.3417143 L28,21.4435918 L30.4273333,18.3546122 L26.6093333,17.2522449 L24.3593333,14.0385306 L22.1093333,17.2522449 L18.292,18.3546122 L20.7186667,21.4435918 L20.6093333,25.339102 L24.3593333,24.0355918 Z M23.1613333,18.6706939 L24.3593333,16.9564082 L25.5573333,18.6706939 L27.5913333,19.2577959 L26.2993333,20.9028571 L26.3566667,22.9795918 L24.3593333,22.2834286 L22.362,22.9795918 L22.4193333,20.9028571 L21.1253333,19.2551837 L23.1613333,18.6706939 Z" id="Fill-64" fill="#1789FC"></path>
                    </g>
                </g>
            </g>
        </g>
    </g>
</svg>