<svg xmlns="http://www.w3.org/2000/svg" width="24" height="24" viewBox="0 0 24 24">
  <path fill="#302E64" fill-rule="evenodd" d="M46,0 C52.6445312,0 58,5.35546875 58,12 C58,18.6445312 52.6445312,24 46,24 C39.3554688,24 34,18.6445312 34,12 C34,5.35546875 39.3554688,0 46,0 Z M53.3007812,9.36328125 C53.96875,8.89453125 54.53125,8.2734375 55,7.60546875 C54.390625,7.86328125 53.7226562,8.05078125 53.03125,8.14453125 C53.7460938,7.72265625 54.25,7.0546875 54.4960938,6.24609375 C53.828125,6.64453125 53.1367188,6.9140625 52.3632812,7.078125 C51.7539062,6.421875 50.8632812,6 49.890625,6 C48.0039062,6 46.5039062,7.5234375 46.5039062,9.421875 C46.5039062,9.66796875 46.5273438,9.94921875 46.5859375,10.1953125 C43.75,10.0546875 41.21875,8.6953125 39.53125,6.609375 C39.25,7.13671875 39.0859375,7.72265625 39.0859375,8.33203125 C39.0859375,9.52734375 39.671875,10.5585938 40.5859375,11.1679688 C40.0234375,11.1679688 39.4960938,11.0039062 39.0507812,10.7460938 L39.0507812,10.78125 C39.0507812,12.4453125 40.2226562,13.8046875 41.78125,14.1445312 C41.5,14.2265625 41.1953125,14.25 40.890625,14.25 C40.6679688,14.25 40.4453125,14.2265625 40.2460938,14.1914062 C40.6679688,15.5507812 41.9453125,16.4765625 43.421875,16.5 C42.25,17.4140625 40.8085938,18.0585938 39.1914062,18.0585938 C38.921875,18.0585938 38.640625,18.0234375 38.3945312,18 C39.8945312,18.9726562 41.6992188,19.5 43.609375,19.5 C49.890625,19.5 53.3007812,14.3085938 53.3007812,9.80859375 L53.3007812,9.36328125 Z" transform="translate(-34)"/>
</svg>
