<?xml version="1.0" encoding="UTF-8"?>
<svg width="50px" height="50px" viewBox="0 0 50 50" version="1.1" xmlns="http://www.w3.org/2000/svg" xmlns:xlink="http://www.w3.org/1999/xlink">
    <!-- Generator: Sketch 42 (36781) - http://www.bohemiancoding.com/sketch -->
    <title>like</title>
    <desc>Created with Sketch.</desc>
    <defs></defs>
    <g id="Page-1" stroke="none" stroke-width="1" fill="none" fill-rule="evenodd">
        <g id="desktop-use-cases" transform="translate(-697.000000, -1862.000000)">
            <g id="benefits" transform="translate(0.000000, 1451.000000)">
                <g id="Group-19" transform="translate(209.000000, 257.000000)">
                    <g id="Group-16" transform="translate(488.000000, 154.000000)">
                        <g id="like" transform="translate(6.000000, 6.000000)">
                            <path d="M23.794196,1.05408514 C20.981923,6.08280413 16.5665821,14.381374 11.3424744,15.7352093 L11.3424744,14.3202246 C11.3424744,13.8034132 10.8723375,13.3359159 10.3561733,13.3359159 L0.893601285,13.3359159 C0.40834118,13.3825999 -0.00261758077,13.8343167 1.25552976e-05,14.3202246 L1.25552976e-05,34.0175748 C1.25552976e-05,34.5337286 0.470149378,35.0012259 0.986313581,35.0012259 L7.36636615,35.0012259 C9.14631074,34.8368457 10.5488308,34.0478208 11.1110224,32.4605656 C13.3019257,34.9499393 16.2996233,36 19.2328826,36 L27.1232908,36 C29.0189613,36 30.5753444,34.4462784 30.5753444,32.553276 C30.5753444,32.0167391 30.4109609,31.5157082 30.1900294,31.0607038 C32.0344123,31.0021845 33.5342474,29.483969 33.5342474,27.6297604 C33.4724392,26.9748697 33.1693161,26.4094018 32.7793984,25.9833283 C34.5336991,25.8445914 35.7994521,24.7531069 36,22.7213677 C35.7994521,21.3063829 35.3063016,20.3201018 33.9346857,20.0735315 C34.7953977,19.4133806 35.4733153,18.4599755 35.5068495,17.3020813 C35.3063016,14.4096474 33.3336996,13.4233662 30.5753444,13.3313133 C29.224112,13.3260531 28.0786877,13.3313133 26.8615922,13.3313133 C28.0451535,11.2016035 29.0958928,8.69250414 29.0958928,4.95778606 C28.8493176,2.72090034 27.9425782,0.295963675 25.8904145,0.00336692453 C25.0915107,-0.035426802 24.4109629,0.25782747 23.794196,1.04882498 L23.794196,1.05408514 Z M26.152113,2.33033299 C26.6452635,2.87739029 27.1232908,4.01818886 27.1232908,4.96304623 C27.1232908,9.15474126 25.7799488,11.3534908 24.3031274,13.8113035 C23.9434563,14.4070173 24.4543602,15.3065058 25.1506887,15.3038757 C27.6164413,15.2986155 28.6027423,15.2986155 30.5753444,15.3038757 C32.0495356,15.3163686 33.5059735,15.8660559 33.5342474,17.2580275 C33.3981379,17.8590015 33.0693709,18.3008554 32.6866861,18.5809593 C32.1369876,18.9767868 31.3512345,19.2562331 30.5753444,19.2588632 C29.8947966,19.1766731 29.3884955,19.8289337 29.3884955,20.3201018 C29.3884955,20.8132424 30.0078925,21.1853991 30.5904676,21.2570689 C30.9192346,21.2932325 31.4768235,21.3497793 32.0547959,21.4885162 C32.8918367,21.68643 33.8268501,21.7968935 34.0273979,22.6727111 C34.0168774,23.3736283 33.6526036,23.6793755 33.1640558,23.933836 C32.5347957,24.1468727 31.4564399,24.1777762 30.3438924,24.1804063 C29.8461391,24.1619957 29.5890433,24.4572226 29.3273448,24.7504768 C29.195838,25.0121701 29.2142489,25.3126571 29.2655366,25.4901877 C29.3424681,25.8005375 29.5607694,25.9701779 29.7738104,26.1529687 C30.5187964,26.6250686 31.3610975,26.7230392 31.5616454,27.6448833 C31.553755,28.4720445 30.9146319,29.1065521 30.0821938,29.1065521 L27.369866,29.1065521 C26.8918388,29.1400856 26.4762773,29.5661591 26.4526061,30.0415466 C26.4295924,30.5189067 26.8050443,30.9811438 27.2771537,31.0587313 C28.0247699,31.1330311 28.6027423,31.7701688 28.6027423,32.5506459 C28.6027423,33.3856973 27.9603316,34.0274376 27.1232908,34.0274376 L19.2328826,34.0274376 C16.0944727,34.0274376 13.1638436,32.7820933 11.3424744,29.3044658 L11.3424744,17.6380745 C18.7574855,15.6352661 22.6362786,7.43926952 25.4590722,2.09428303 C25.7648255,1.83193224 25.8798939,2.11203609 26.152113,2.32507283 L26.152113,2.33033299 Z M1.97261461,15.3038757 L9.3698723,15.3038757 L9.3698723,31.1225108 C9.31069424,32.3172261 8.43222879,33.0181432 7.36636615,33.0312936 L1.97261461,33.0312936 L1.97261461,15.3038757 Z" id="Page-1" fill="#000000"></path>
                            <path d="M6.90411974,29.0934016 C6.08746249,29.0934016 5.4246682,29.7561826 5.4246682,30.5701933 C5.4246682,31.3874917 6.08746249,32.046985 6.90411974,32.046985 C7.72077699,32.046985 8.38357128,31.3848616 8.38357128,30.5701933 C8.38357128,29.7535525 7.72077699,29.0934016 6.90411974,29.0934016 Z" id="Path" fill="#1789FC"></path>
                        </g>
                    </g>
                </g>
            </g>
        </g>
    </g>
</svg>