<?xml version="1.0" encoding="UTF-8"?>
<svg width="50px" height="50px" viewBox="0 0 50 50" version="1.1" xmlns="http://www.w3.org/2000/svg" xmlns:xlink="http://www.w3.org/1999/xlink">
    <!-- Generator: Sketch 42 (36781) - http://www.bohemiancoding.com/sketch -->
    <title>speed</title>
    <desc>Created with Sketch.</desc>
    <defs></defs>
    <g id="Page-1" stroke="none" stroke-width="1" fill="none" fill-rule="evenodd">
        <g id="desktop-use-cases" transform="translate(-272.000000, -1862.000000)">
            <g id="benefits" transform="translate(0.000000, 1451.000000)">
                <g id="Group-19" transform="translate(209.000000, 257.000000)">
                    <g id="Group-15" transform="translate(63.000000, 154.000000)">
                        <g id="speed" transform="translate(5.000000, 5.000000)">
                            <path d="M1.00426667,28.4479561 L7.94346667,28.4479561 C9.2768,28.4479561 9.2768,26.4479561 7.94346667,26.4479561 L1.00426667,26.4479561 C-0.329066667,26.4479561 -0.329066667,28.4479561 1.00426667,28.4479561 Z" id="Path" fill="#1789FC"></path>
                            <path d="M24.3434667,18.7354228 L21.7792,21.3002228 C22.5584,22.7791561 22.1397333,24.6042228 20.7936,25.5956894 C19.448,26.5876894 17.5792,26.4458228 16.3978667,25.2644894 C15.2165333,24.0831561 15.0752,22.2143561 16.0666667,20.8687561 C17.0581333,19.5247561 18.8853333,19.1060894 20.3626667,19.8831561 L22.9269333,17.3188894 C23.8709333,16.3748894 25.2874667,17.7914228 24.3434667,18.7354228 Z M20.1685333,22.8730228 C20.1685333,21.6500894 18.6917333,21.0372894 17.8272,21.9018228 C16.9626667,22.7668894 17.5749333,24.2458228 18.7957333,24.2458228 C19.5541333,24.2436894 20.1664,23.6292894 20.1685333,22.8730228 Z" id="Combined-Shape" fill="#1789FC"></path>
                            <path d="M11.3685333,22.5956894 L11.3685333,22.5956894 C11.3685333,22.0436894 10.9205333,21.5956894 10.3685333,21.5956894 L3.42933333,21.5956894 C2.096,21.5956894 2.096,23.5956894 3.42933333,23.5956894 L10.3685333,23.5956894 C10.9205333,23.5956894 11.3685333,23.1476894 11.3685333,22.5956894 Z" id="Path" fill="#1789FC"></path>
                            <path d="M0,17.7476894 L0,17.7476894 C0,18.2996894 0.448,18.7476894 1,18.7476894 L7.94346667,18.7476894 C9.2768,18.7476894 9.2768,16.7476894 7.94346667,16.7476894 L1.00426667,16.7476894 C0.453866667,16.7476894 0.0064,17.1935561 0.00426666667,17.7439561 L0,17.7476894 Z" id="Path" fill="#1789FC"></path>
                            <path d="M32.8,12.0751561 L31.6896,13.1999561 C35.2373333,17.9268894 35.9146667,24.2143561 33.4538667,29.5892894 C30.9936,34.9626228 25.7914667,38.5604894 19.896,38.9647561 C19.5269333,38.9892894 19.1626667,38.9999561 18.8,38.9999561 C14.2352,39.0106228 9.88106667,37.0772894 6.82933333,33.6831561 C5.9792,32.6959561 7.41866667,31.3956894 8.31253333,32.3439561 C13.4810667,38.0644894 22.2832,38.5834228 28.0896,33.5103561 C33.896,28.4372894 34.5626667,19.6458228 29.5893333,13.7562228 C29.2522667,13.3583561 29.2752,12.7684894 29.6437333,12.3999561 L31.3872,10.6559561 C31.9893333,9.98928943 31.0538667,9.05435609 30.3872,9.65595609 L28.5749333,11.4687561 C28.2229333,11.8207561 27.6645333,11.8602228 27.2666667,11.5604894 C25.2602667,10.0559561 22.8874667,9.11248943 20.3936,8.83302276 C19.8874667,8.77702276 19.504,8.34982276 19.504,7.83942276 L19.504,4.61648943 C19.496,4.05808943 19.9456,3.59995609 20.504,3.59995609 L21.4208,3.59995609 C22.3648,3.59995609 22.3648,2.18342276 21.4208,2.18342276 L16.1728,2.18342276 C15.2293333,2.18342276 15.2293333,3.59995609 16.1728,3.59995609 L17.0896,3.59995609 C17.6416,3.59995609 18.0896,4.04795609 18.0896,4.59995609 L18.0896,7.83942276 C18.0896,8.34768943 17.7061333,8.77488943 17.2021333,8.83142276 C13.9685333,9.20208943 10.9626667,10.6751561 8.6896,13.0042228 C7.75413333,13.9604894 6.32053333,12.5562228 7.256,11.5999561 C9.63946667,9.16475609 12.7312,7.54555609 16.0896,6.97275609 L16.0896,5.59995609 C12.7541333,5.29595609 12.8293333,0.399956094 16.1728,0.199956094 L21.4208,0.199956094 C24.7626667,0.399956094 24.8394667,5.29595609 21.504,5.59995609 L21.504,6.95622276 C23.7397333,7.33542276 25.8709333,8.18128943 27.7562667,9.43942276 L28.9562667,8.23942276 C31.5082667,5.68528943 35.3397333,9.51248943 32.7872,12.0666228 L32.8,12.0751561 Z M18.7957333,34.7727561 L18.7957333,34.7727561 C22.7728,34.7791561 26.4917333,32.7978228 28.704,29.4938228 C30.9189333,26.1892894 31.3354667,21.9978228 29.8165333,18.3210228 C28.296,14.6458228 25.0416,11.9706228 21.1397333,11.1935561 C17.2394667,10.4164894 13.2085333,11.6394228 10.3957333,14.4522228 C9.45226667,15.3956894 10.8688,16.8122228 11.8122667,15.8687561 C14.6458667,13.0314228 18.9082667,12.1812894 22.6122667,13.7124894 C26.3168,15.2458228 28.7333333,18.8602228 28.7333333,22.8687561 C28.7333333,26.8772894 26.3168,30.4916894 22.6122667,32.0250228 C18.9082667,33.5562228 14.6458667,32.7060894 11.8122667,29.8687561 C10.8688,28.9247561 9.45226667,30.3418228 10.3957333,31.2852894 C12.6229333,33.5167561 15.6437333,34.7706228 18.7957333,34.7727561 Z" id="Page-1" fill="#000000"></path>
                        </g>
                    </g>
                </g>
            </g>
        </g>
    </g>
</svg>