<svg xmlns="http://www.w3.org/2000/svg" width="24" height="24" viewBox="0 0 24 24">
  <path fill="#302E64" fill-rule="evenodd" d="M12,0 C18.6210938,0 24,5.37890625 24,12 C24,18.6210938 18.6210938,24 12,24 C5.37890625,24 0,18.6210938 0,12 C0,5.37890625 5.37890625,0 12,0 Z M18.9960938,17.0039062 L18.9960938,6.99609375 C18.9960938,5.89453125 18.1054688,5.00390625 17.0039062,5.00390625 L6.99609375,5.00390625 C5.89453125,5.00390625 5.00390625,5.89453125 5.00390625,6.99609375 L5.00390625,17.0039062 C5.00390625,18.1054688 5.89453125,18.9960938 6.99609375,18.9960938 L17.0039062,18.9960938 C18.1054688,18.9960938 18.9960938,18.1054688 18.9960938,17.0039062 Z M17.0039062,6.50390625 C17.2734375,6.50390625 17.4960938,6.7265625 17.4960938,6.99609375 L17.4960938,8.49609375 C17.4960938,8.77734375 17.2734375,9 17.0039062,9 L15.5039062,9 C15.2226562,9 15,8.77734375 15,8.49609375 L15,6.99609375 C15,6.7265625 15.2226562,6.50390625 15.5039062,6.50390625 L17.0039062,6.50390625 Z M12,14.4960938 C10.6171875,14.4960938 9.50390625,13.3828125 9.50390625,12 C9.50390625,10.6171875 10.6171875,9.50390625 12,9.50390625 C13.3828125,9.50390625 14.4960938,10.6171875 14.4960938,12 C14.4960938,13.3828125 13.3828125,14.4960938 12,14.4960938 Z M15.9960938,12 C15.9960938,11.6601562 15.9609375,11.3203125 15.8789062,11.0039062 L17.4960938,11.0039062 L17.4960938,17.0039062 C17.4960938,17.2734375 17.2734375,17.4960938 17.0039062,17.4960938 L6.99609375,17.4960938 C6.7265625,17.4960938 6.50390625,17.2734375 6.50390625,17.0039062 L6.50390625,11.0039062 L8.12109375,11.0039062 C8.0390625,11.3203125 8.00390625,11.6601562 8.00390625,12 C8.00390625,14.203125 9.78515625,15.9960938 12,15.9960938 C14.2148438,15.9960938 15.9960938,14.203125 15.9960938,12 Z"/>
</svg>
