<?xml version="1.0" encoding="UTF-8"?>
<svg width="50px" height="50px" viewBox="0 0 50 50" version="1.1" xmlns="http://www.w3.org/2000/svg" xmlns:xlink="http://www.w3.org/1999/xlink">
    <!-- Generator: Sketch 42 (36781) - http://www.bohemiancoding.com/sketch -->
    <title>photos</title>
    <desc>Created with Sketch.</desc>
    <defs></defs>
    <g id="Page-1" stroke="none" stroke-width="1" fill="none" fill-rule="evenodd">
        <g id="desktop-use-cases" transform="translate(-271.000000, -1988.000000)">
            <g id="benefits" transform="translate(0.000000, 1451.000000)">
                <g id="Group-19" transform="translate(209.000000, 257.000000)">
                    <g id="Group-17" transform="translate(62.000000, 280.000000)">
                        <path d="M40.3426087,11.2857143 L10.2747826,11.2857143 C8.49507246,11.2857143 7.04347826,12.7051429 7.04347826,14.4577143 L7.04347826,16 L6.08985507,16 C5.17507246,16 4.43478261,16.8125714 4.43478261,17.7142857 C4.43478261,18.616 5.17507246,19.4285714 6.08985507,19.4285714 L7.04347826,19.4285714 L7.04347826,23.2857143 L6.08985507,23.2857143 C5.17507246,23.2857143 4.43478261,24.0982857 4.43478261,25 C4.43478261,25.9017143 5.17507246,26.7142857 6.08985507,26.7142857 L7.04347826,26.7142857 L7.04347826,31 L6.08985507,31 C5.17507246,31 4.43478261,31.8125714 4.43478261,32.7142857 C4.43478261,33.616 5.17507246,34.4285714 6.08985507,34.4285714 L7.04347826,34.4285714 L7.04347826,35.54 C7.04347826,37.2948571 8.49507246,38.7142857 10.2747826,38.7142857 L40.3426087,38.7142857 C42.1205797,38.7142857 43.5652174,37.2948571 43.5652174,35.54 L43.5652174,14.4577143 C43.5652174,12.7051429 42.1228986,11.2857143 40.3426087,11.2857143 Z M40.3426087,36.5714286 L10.2747826,36.5714286 C9.67942029,36.5714286 9.2173913,36.1274286 9.2173913,35.54 L9.2173913,34.4285714 L9.4915942,34.4285714 C10.4063768,34.4285714 11.1466667,33.616 11.1466667,32.7142857 C11.1466667,31.8125714 10.4063768,31 9.4915942,31 L9.2173913,31 L9.2173913,26.7142857 L9.4915942,26.7142857 C10.4063768,26.7142857 11.1466667,25.9017143 11.1466667,25 C11.1466667,24.0982857 10.4063768,23.2857143 9.4915942,23.2857143 L9.2173913,23.2857143 L9.2173913,19.4285714 L9.4915942,19.4285714 C10.4063768,19.4285714 11.1466667,18.616 11.1466667,17.7142857 C11.1466667,16.8125714 10.4063768,16 9.4915942,16 L9.2173913,16 L9.2173913,14.4577143 C9.2173913,13.8725714 9.67942029,13.4285714 10.2747826,13.4285714 L40.3426087,13.4285714 C40.9362319,13.4285714 41.3913043,13.8725714 41.3913043,14.4577143 L41.3913043,26.6251429 L39.1084058,24.7342857 C38.8347826,24.5022857 38.4382609,24.4868571 38.142029,24.6851429 L32.5031884,28.4331429 L22.9582609,19.1205714 C22.6933333,18.8617143 22.2811594,18.8171429 21.9663768,19.0114286 L11.6811594,25.3102857 L11.6608696,27.2274286 L22.2765217,20.6897143 L31.8376812,30.0177143 C31.9936232,30.1697143 32.1976812,30.248 32.4034783,30.248 C32.56,30.248 32.7182609,30.2028571 32.853913,30.1114286 L38.5356522,26.3348571 L41.3913043,28.6988571 L41.3913043,35.54 C41.3913043,36.1274286 40.9362319,36.5714286 40.3426087,36.5714286 Z" id="Fill-1" fill="#000000"></path>
                        <path d="M33.7895652,23.9645714 C31.7286957,23.9645714 30.0527536,22.3125714 30.0527536,20.2811429 C30.0527536,18.2502857 31.7286957,16.596 33.7895652,16.596 C35.8481159,16.596 37.5257971,18.248 37.5257971,20.2811429 C37.5234783,22.3125714 35.8481159,23.9645714 33.7895652,23.9645714 Z M33.7895652,18.1874286 C32.6185507,18.1874286 31.6655072,19.1274286 31.6655072,20.2834286 C31.6655072,21.44 32.6185507,22.3771429 33.7895652,22.3771429 C34.9623188,22.3771429 35.9136232,21.44 35.9136232,20.2834286 C35.9136232,19.1274286 34.9623188,18.1874286 33.7895652,18.1874286 Z" id="Fill-2" fill="#1789FC"></path>
                    </g>
                </g>
            </g>
        </g>
    </g>
</svg>