<?xml version="1.0" encoding="UTF-8"?>
<svg width="50px" height="50px" viewBox="0 0 50 50" version="1.1" xmlns="http://www.w3.org/2000/svg" xmlns:xlink="http://www.w3.org/1999/xlink">
    <!-- Generator: Sketch 42 (36781) - http://www.bohemiancoding.com/sketch -->
    <title>price</title>
    <desc>Created with Sketch.</desc>
    <defs></defs>
    <g id="Page-1" stroke="none" stroke-width="1" fill="none" fill-rule="evenodd">
        <g id="desktop-use-cases" transform="translate(-269.000000, -1743.000000)">
            <g id="benefits" transform="translate(0.000000, 1451.000000)">
                <g id="Group-19" transform="translate(209.000000, 257.000000)">
                    <g id="Group-14" transform="translate(60.000000, 35.000000)">
                        <g id="value" transform="translate(10.000000, 5.000000)">
                            <path d="M26.8028813,9.71602472 L26.8028813,9.71602472 C26.5570147,9.08882472 26.0610147,8.58909139 25.434348,8.34109139 L22.8610147,7.32455806 L22.365548,4.60349139 C22.1132813,3.21362472 20.7340813,2.33042472 19.365548,2.68242472 L16.6818147,3.35975806 L14.6818147,1.45149139 C13.6610147,0.47869139 12.0300813,0.572024723 11.1298147,1.65949139 L9.36981467,3.79122472 L6.63008134,3.42215806 C5.23008134,3.23495806 3.96554801,4.27229139 3.87808134,5.68242472 L3.70474801,8.44295806 L1.26741467,9.75549139 C0.0380813414,10.4264247 -0.372051992,11.9928247 0.371414675,13.1805581 L1.85514801,15.5160247 L0.655148008,18.0077581 C0.0423480081,19.2808247 0.640214675,20.8056247 1.95488134,21.3245581 L5.04234801,22.5453581 C6.28181467,23.0365581 7.01728134,21.1762914 5.77781467,20.6845581 L2.69034801,19.4637581 C2.45728134,19.3720247 2.35061467,19.1016247 2.45888134,18.8765581 L3.89461467,15.8845581 C4.04448134,15.5741581 4.02368134,15.2077581 3.83808134,14.9160247 L2.05888134,12.1160247 C1.92394801,11.9032247 1.99861467,11.6221581 2.21941467,11.5032247 L5.14474801,9.92829139 C5.44448134,9.76829139 5.64021467,9.46589139 5.66954801,9.12829139 L5.87808134,5.81575806 C5.88394801,5.69522472 5.94048134,5.58482472 6.03434801,5.50749139 C6.12554801,5.42855806 6.24661467,5.39495806 6.36554801,5.41202472 L9.65728134,5.85575806 C9.99861467,5.90322472 10.3426147,5.76989139 10.5612813,5.50322472 L12.6780813,2.94322472 C12.8380813,2.74909139 13.1276813,2.73255806 13.3090147,2.90749139 L15.7090147,5.19922472 C15.959148,5.43869139 16.3154147,5.53042472 16.648748,5.44295806 L19.848748,4.61575806 C20.090348,4.55335806 20.3362147,4.70962472 20.379948,4.95549139 L21.0028813,8.21575806 C21.0652813,8.55549139 21.296748,8.84082472 21.6194147,8.96829139 L24.7068813,10.1890914 C24.9340813,10.2888247 25.0322147,10.5597581 24.9196813,10.7805581 L23.4818147,13.7720247 C23.331948,14.0824247 23.352748,14.4493581 23.538348,14.7410914 L25.317548,17.5410914 C25.4530147,17.7533581 25.3778147,18.0349581 25.1570147,18.1533581 L22.2322147,19.7282914 C21.7276813,19.9805581 21.531948,20.6013581 21.7986147,21.0973581 C22.0674147,21.5928247 22.6924813,21.7698914 23.179948,21.4888247 L26.104748,19.9138914 C27.344748,19.2429581 27.7570147,17.6637581 27.0028813,16.4722914 L25.5196813,14.1368247 L26.7196813,11.6450914 C27.0114147,11.0365581 27.0402147,10.3346914 26.794348,9.70535806 L26.8028813,9.71602472 Z" id="Page-1" fill="#302E64"></path>
                            <path d="M34.8028813,22.9160247 L34.8028813,22.9160247 C34.8882147,23.9032247 34.531948,24.8786914 33.8300813,25.5805581 L24.6300813,34.7805581 C23.3026147,36.0973581 21.5068813,36.8306914 19.6380813,36.8200247 L8.27808134,36.8200247 L5.40288134,39.6888247 C4.45888134,40.6328247 3.04234801,39.2157581 3.98634801,38.2722914 L7.14688134,35.1117581 C7.33408134,34.9245581 7.58848134,34.8200247 7.85514801,34.8200247 L19.6380813,34.8200247 C20.9884813,34.8264247 22.2860813,34.2888247 23.2380813,33.3325581 L32.4380813,24.1325581 C33.642348,22.8472247 31.794348,20.9992247 30.511148,22.2056247 L23.2508813,29.5410914 L23.2258147,29.5618914 C22.600748,30.1805581 21.7570147,30.5304247 20.8780813,30.5346914 L13.8588813,30.5346914 C12.525548,30.5346914 12.525548,28.5346914 13.8588813,28.5346914 L20.8818147,28.5346914 C21.5154147,28.5325581 22.063148,28.0909581 22.2028813,27.4722914 C22.3906147,26.6285581 21.7468813,25.8285581 20.8818147,25.8285581 L8.76768134,25.8285581 C7.64661467,25.8242914 6.57141467,26.2701581 5.77994801,27.0637581 L4.01141467,28.8285581 C3.63221467,29.2701581 2.95701467,29.2952247 2.54474801,28.8824247 C2.13408134,28.4701581 2.16128134,27.7949581 2.60288134,27.4157581 L4.37141467,25.6514914 C5.53621467,24.4808247 7.11968134,23.8242914 8.77141467,23.8264247 L20.8818147,23.8264247 C22.2380813,23.8221581 23.4610147,24.6429581 23.973548,25.8994914 L29.0716813,20.8056247 C29.9986147,19.8786914 31.3820813,19.5741581 32.613548,20.0285581 C33.842348,20.4824247 34.6988813,21.6098914 34.8028813,22.9160247 Z" id="Path" fill="#1789FC"></path>
                            <path d="M13.6818147,19.7160247 L13.6818147,19.7160247 C12.9484813,19.7181581 12.2882147,19.2765581 12.007148,18.5992247 C11.490348,17.3698914 9.64661467,18.1453581 10.1634147,19.3741581 C10.7570147,20.7928247 12.144748,21.7160247 13.683948,21.7138914 C15.8588813,21.7138914 17.5010147,20.1741581 17.5010147,18.1138914 C17.5010147,17.0973581 17.035948,15.2866914 13.944748,14.5661581 L13.9132813,14.5661581 C11.8738147,14.1016247 11.8738147,13.2408247 11.8738147,12.9661581 C11.8738147,11.8824247 12.813548,11.3661581 13.690348,11.3661581 C14.421548,11.3640247 15.083948,11.8034914 15.365548,12.4786914 C15.5676813,13.0056247 16.165548,13.2594914 16.6860813,13.0429581 C17.2050147,12.8242914 17.442348,12.2200247 17.2092813,11.7053581 C16.7548813,10.6221581 15.8236813,9.80989139 14.6882147,9.50535806 L14.6882147,8.80562472 C14.6882147,7.47229139 12.6882147,7.47229139 12.6882147,8.80562472 L12.6882147,9.52242472 C11.0530147,9.86589139 9.88394801,11.3117581 9.88821467,12.9826914 C9.88821467,13.9992247 10.352748,15.8098914 13.4444813,16.5304247 L13.475948,16.5304247 C15.5154147,16.9992247 15.5154147,17.8557581 15.5154147,18.1304247 C15.490348,19.2285581 14.5506147,19.7202914 13.675948,19.7202914 L13.6818147,19.7160247 Z" id="Path" fill="#1789FC"></path>
                        </g>
                    </g>
                </g>
            </g>
        </g>
    </g>
</svg>