<?xml version="1.0" encoding="UTF-8"?>
<svg width="150px" height="100px" viewBox="0 0 150 100" version="1.1" xmlns="http://www.w3.org/2000/svg" xmlns:xlink="http://www.w3.org/1999/xlink">
    <!-- Generator: Sketch 42 (36781) - http://www.bohemiancoding.com/sketch -->
    <title>Slice</title>
    <desc>Created with Sketch.</desc>
    <defs></defs>
    <g id="logo" stroke="none" stroke-width="1" fill="none" fill-rule="evenodd">
        <g id="Group" fill-rule="nonzero" fill="#302E64">
            <path d="M56.7981449,57.6422522 L56.8267556,57.5495302 L63.1642222,37.2108993 L49.9365167,27.0419866 L15.7034667,60.5846443 L52.4893222,60.5846443 L96.7057833,60.5846443 L133.490511,60.5846443 L99.2576222,27.042953 L86.0326556,37.2108993 L92.3886124,57.6365158 L74.6448389,45.5195705 L74.5974722,45.4875168 L56.7981449,57.6422522 Z" id="shape"></path>
            <polyline id="star" points="93.0893222 15.4888054 79.1272722 15.4548188 74.5974722 2.05766443 70.0642889 15.4548188 56.1057833 15.4888054 67.2670778 24.0693691 63.1677667 37.2242685 74.5974722 29.3967248 86.0228278 37.2242685 81.9296389 24.0693691 93.0893222 15.4888054"></polyline>
            <g id="text" transform="translate(2.000000, 65.302013)">
                <path d="M0,11.8555168 L0,9.72 L3.60566667,9.72 L3.60566667,5.09122148 L6.27656667,3.93406711 L6.27656667,9.72 L10.817,9.72 L10.817,11.8555168 L6.27656667,11.8555168 L6.27656667,26.2748456 C6.27656667,29.2564832 6.58783333,29.9700403 8.72481111,29.9700403 C9.61478889,29.9700403 10.2382889,29.9254228 10.817,29.8358658 L10.817,32.1503356 C10.0154722,32.2397315 9.12549444,32.284349 8.27933889,32.284349 C4.67367222,32.284349 3.60566667,30.6818255 3.60566667,27.9221477 L3.60566667,11.8555168 L5.72381648e-16,11.8555168" id="Fill-5"></path>
                <path d="M26.6207111,19.3781477 C26.6207111,14.393396 25.8203111,11.4101477 21.5463556,11.4101477 C17.2735278,11.4101477 16.472,14.393396 16.472,19.3781477 L26.6207111,19.3781477 M16.472,21.5138255 L16.472,23.2487517 C16.472,26.3644027 17.3171889,30.5030336 21.5463556,30.5030336 C24.8855444,30.5030336 26.5322611,28.3675168 26.4874722,25.3412617 L29.2917722,25.3412617 C28.9805056,30.7713826 26.0429667,32.6403221 21.5463556,32.6403221 C17.6742111,32.6403221 13.8009389,31.0825772 13.8009389,24.2735034 L13.8009389,18.7539866 C13.8009389,12.2561074 16.5166278,9.27463087 21.5463556,9.27463087 C29.2917722,9.27463087 29.2917722,14.8369933 29.2917722,21.5138255 L16.472,21.5138255" id="Fill-6"></path>
                <path d="M44.16265,16.1731007 C44.2958889,13.3686443 43.2717056,11.4101477 40.2009278,11.4101477 C38.5532444,11.4101477 37.1739722,12.3455034 36.5952611,13.9928054 C36.2382389,15.0159463 35.9717611,18.0868188 35.9717611,21.0684564 C35.9717611,25.1176913 35.9717611,30.5030336 40.11135,30.5030336 C43.6285667,30.5030336 44.0730722,28.2781208 44.2064722,25.5630604 L46.8773722,25.5630604 C47.1000278,31.6155705 42.8272,32.6403221 40.73485,32.6403221 C33.1228333,32.6403221 33.1228333,26.6308188 33.1228333,21.0684564 C33.1228333,18.8433826 33.2114444,15.3271409 33.7901556,13.6369933 C34.9475778,10.4317852 37.4852389,9.27463087 40.5569833,9.27463087 C44.4291278,9.27463087 47.0554,11.4549262 46.83355,16.1731007 L44.16265,16.1731007" id="Fill-7"></path>
                <path d="M51.4643667,32.1951141 L51.4643667,0.0616912752 L54.1352667,0.0616912752 L54.1352667,12.4796779 L54.2246833,12.4796779 C55.5155056,10.6107383 57.2516389,9.27463087 59.6550944,9.27463087 C65.2198722,9.27463087 65.7985833,13.4132617 65.7985833,16.3502819 L65.7985833,32.1951141 L63.1275222,32.1951141 L63.1275222,16.4842953 C63.1275222,13.8587919 62.1033389,11.4101477 58.9877722,11.4101477 C56.5835111,11.4101477 54.1352667,13.0574497 54.1352667,18.0868188 L54.1352667,32.1951141 L51.4643667,32.1951141" id="Fill-8"></path>
                <path d="M77.1960667,32.6403221 C72.3443667,32.6403221 70.4302056,30.2812349 70.4740278,25.518443 L73.1895556,25.518443 C73.1895556,28.5893154 73.9026333,30.6372081 77.3301111,30.6372081 C79.9117556,30.6372081 81.1585944,29.1688591 81.1585944,26.6754362 C81.1585944,20.8018792 71.0527389,22.3150067 71.0527389,14.8817718 C71.0527389,10.7429799 73.9026333,9.27463087 77.8186,9.27463087 C82.2713889,9.27463087 83.69545,12.3455034 83.69545,15.7725101 L81.0691778,15.7725101 C80.9349722,12.9232752 80.1782333,11.4101477 77.1512778,11.4101477 C75.2371167,11.4101477 73.7236389,12.6568591 73.7236389,14.6599732 C73.7236389,20.2671141 83.8294944,18.7539866 83.8294944,26.2748456 C83.8294944,30.5030336 81.3804444,32.6403221 77.1960667,32.6403221" id="Fill-9"></path>
                <path d="M86.5469556,11.8555168 L86.5469556,9.72 L90.1518167,9.72 L90.1518167,5.09122148 L92.8227167,3.93406711 L92.8227167,9.72 L97.36315,9.72 L97.36315,11.8555168 L92.8227167,11.8555168 L92.8227167,26.2748456 C92.8227167,29.2564832 93.1339833,29.9700403 95.2719278,29.9700403 C96.1609389,29.9700403 96.7854056,29.9254228 97.36315,29.8358658 L97.36315,32.1503356 C96.5617833,32.2397315 95.6708389,32.284349 94.8264556,32.284349 C91.2198222,32.284349 90.1518167,30.6818255 90.1518167,27.9221477 L90.1518167,11.8555168 L86.5469556,11.8555168" id="Fill-10"></path>
                <path d="M112.365494,20.7124832 C108.537172,20.8466577 102.751511,20.4012886 102.751511,25.874255 C102.751511,28.4121342 104.041367,30.5030336 106.801844,30.5030336 C109.873428,30.5030336 112.365494,27.7433557 112.365494,24.8064966 L112.365494,20.7124832 M112.544489,29.4352752 L112.455072,29.4352752 C111.031011,31.5707919 108.850211,32.6403221 106.089894,32.6403221 C102.082578,32.6403221 99.9017778,29.9254228 99.9017778,26.0084295 C99.9017778,18.1315973 107.825061,18.9329396 112.365494,18.5769664 L112.365494,16.7078658 C112.365494,13.4132617 111.386906,11.4101477 107.825061,11.4101477 C105.377783,11.4101477 103.418833,12.6120805 103.418833,15.2823624 L100.568939,15.2823624 C100.792722,10.9665503 104.130944,9.27463087 108.048683,9.27463087 C110.319061,9.27463087 115.036556,9.49820134 115.036556,15.237745 L115.036556,26.5431946 C115.036556,28.1439463 115.036556,29.5694497 115.304806,32.1951141 L112.544489,32.1951141 L112.544489,29.4352752" id="Fill-11"></path>
                <path d="M123.095817,12.746255 L123.185233,12.746255 C124.298028,10.6107383 126.657661,9.27463087 129.37335,9.27463087 L129.37335,11.9896913 C125.589656,11.6784966 123.095817,13.9481879 123.095817,17.7310067 L123.095817,32.1951141 L120.424917,32.1951141 L120.424917,9.72 L123.095817,9.72 L123.095817,12.746255" id="Fill-12"></path>
                <path d="M138.366572,32.6403221 C133.514872,32.6403221 131.60055,30.2812349 131.645339,25.518443 L134.361028,25.518443 C134.361028,28.5893154 135.072978,30.6372081 138.500617,30.6372081 C141.082261,30.6372081 142.3291,29.1688591 142.3291,26.6754362 C142.3291,20.8018792 132.223083,22.3150067 132.223083,14.8817718 C132.223083,10.7429799 135.072978,9.27463087 138.989106,9.27463087 C143.441894,9.27463087 144.865956,12.3455034 144.865956,15.7725101 L142.239683,15.7725101 C142.105478,12.9232752 141.348739,11.4101477 138.321783,11.4101477 C136.407622,11.4101477 134.894144,12.6568591 134.894144,14.6599732 C134.894144,20.2671141 145,18.7539866 145,26.2748456 C145,30.5030336 142.55095,32.6403221 138.366572,32.6403221" id="Fill-13"></path>
            </g>
        </g>
    </g>
</svg>