<?xml version="1.0" encoding="UTF-8"?>
<svg width="400px" height="86px" viewBox="0 0 400 86" version="1.1" xmlns="http://www.w3.org/2000/svg" xmlns:xlink="http://www.w3.org/1999/xlink">
    <!-- Generator: Sketch 42 (36781) - http://www.bohemiancoding.com/sketch -->
    <title>logo-word</title>
    <desc>Created with Sketch.</desc>
    <defs></defs>
    <g id="Page-1" stroke="none" stroke-width="1" fill="none" fill-rule="evenodd">
        <g id="branding" transform="translate(-790.000000, -436.000000)">
            <g id="logos/wordmark" transform="translate(790.000000, 437.000000)">
                <g id="word" transform="translate(102.000000, 15.000000)" fill="#302E64">
                    <path d="M51.5933028,49.2594343 C51.5933028,52.3312521 54.0788961,54.8179618 57.1493349,54.8179618 C60.2197736,54.8179618 62.7053669,52.3312521 62.7053669,49.2594343 L62.7053669,32.5107134 C62.7053669,27.24474 65.4102773,24.5386147 69.650407,24.5386147 C73.8905368,24.5386147 76.3761301,27.24474 76.3761301,32.5107134 L76.3761301,49.2594343 C76.3761301,52.3312521 78.8617234,54.8179618 81.9321621,54.8179618 C85.0026009,54.8179618 87.4881942,52.3312521 87.4881942,49.2594343 L87.4881942,29.0000644 C87.4881942,20.0040265 82.5901133,14.445499 74.1829595,14.445499 C68.5538218,14.445499 65.2640659,17.4441783 62.7053669,20.7354117 L62.7053669,20.2965806 C62.7053669,17.2247628 60.2197736,14.7380531 57.1493349,14.7380531 C54.0788961,14.7380531 51.5933028,17.2247628 51.5933028,20.2965806 L51.5933028,49.2594343 Z M136.542109,6.10770781 L136.542109,49.2594343 C136.542109,52.3312521 134.056516,54.8179618 130.986077,54.8179618 C127.915638,54.8179618 125.430045,52.3312521 125.430045,49.2594343 L125.430045,48.7474647 C122.725134,52.4043907 118.996745,55.1105159 113.221395,55.1105159 C104.083185,55.1105159 95.3836082,47.942941 95.3836082,34.851146 L95.3836082,34.7048689 C95.3836082,21.6130739 103.936973,14.445499 113.221395,14.445499 C119.142956,14.445499 122.79824,17.1516243 125.430045,20.2965806 L125.430045,6.10770781 C125.430045,3.03588999 127.915638,0.549180328 130.986077,0.549180328 C134.056516,0.549180328 136.542109,3.03588999 136.542109,6.10770781 Z M116.072517,23.8803681 C110.882013,23.8803681 106.495672,28.1224022 106.495672,34.7048689 L106.495672,34.851146 C106.495672,41.3604742 110.882013,45.6756469 116.072517,45.6756469 C121.263021,45.6756469 125.576256,41.3604742 125.576256,34.851146 L125.576256,34.7048689 C125.576256,28.1955407 121.263021,23.8803681 116.072517,23.8803681 Z M146.338271,5.96143077 C146.338271,9.17952563 149.043181,11.2274042 152.552254,11.2274042 C156.061327,11.2274042 158.766237,9.17952563 158.766237,5.96143077 L158.766237,5.81515373 C158.766237,2.59705887 156.061327,0.622318847 152.552254,0.622318847 C149.043181,0.622318847 146.338271,2.59705887 146.338271,5.81515373 L146.338271,5.96143077 Z M146.996222,49.2594343 C146.996222,52.3312521 149.481815,54.8179618 152.552254,54.8179618 C155.622693,54.8179618 158.108286,52.3312521 158.108286,49.2594343 L158.108286,20.2965806 C158.108286,17.2247628 155.622693,14.7380531 152.552254,14.7380531 C149.481815,14.7380531 146.996222,17.2247628 146.996222,20.2965806 L146.996222,49.2594343 Z M207.966363,6.10770781 L207.966363,49.2594343 C207.966363,52.3312521 205.48077,54.8179618 202.410331,54.8179618 C199.339893,54.8179618 196.854299,52.3312521 196.854299,49.2594343 L196.854299,48.7474647 C194.149389,52.4043907 190.420999,55.1105159 184.64565,55.1105159 C175.507439,55.1105159 166.807863,47.942941 166.807863,34.851146 L166.807863,34.7048689 C166.807863,21.6130739 175.361228,14.445499 184.64565,14.445499 C190.56721,14.445499 194.222495,17.1516243 196.854299,20.2965806 L196.854299,6.10770781 C196.854299,3.03588999 199.339893,0.549180328 202.410331,0.549180328 C205.48077,0.549180328 207.966363,3.03588999 207.966363,6.10770781 Z M187.496772,23.8803681 C182.306268,23.8803681 177.919927,28.1224022 177.919927,34.7048689 L177.919927,34.851146 C177.919927,41.3604742 182.306268,45.6756469 187.496772,45.6756469 C192.687275,45.6756469 197.000511,41.3604742 197.000511,34.851146 L197.000511,34.7048689 C197.000511,28.1955407 192.687275,23.8803681 187.496772,23.8803681 Z M217.031468,48.4549106 L217.031468,48.6011877 C217.031468,52.1118366 219.736379,54.8179618 223.391663,54.8179618 C227.046947,54.8179618 229.751858,52.1118366 229.751858,48.6011877 L229.751858,48.4549106 C229.751858,44.9442617 227.046947,42.2381365 223.391663,42.2381365 C219.736379,42.2381365 217.031468,44.9442617 217.031468,48.4549106 Z M239.328702,49.2594343 C239.328702,52.3312521 241.814296,54.8179618 244.884734,54.8179618 C247.955173,54.8179618 250.440766,52.3312521 250.440766,49.2594343 L250.440766,6.10770781 C250.440766,3.03588999 247.955173,0.549180328 244.884734,0.549180328 C241.814296,0.549180328 239.328702,3.03588999 239.328702,6.10770781 L239.328702,49.2594343 Z M269.00961,66.3007094 C266.524017,66.3007094 264.769481,65.9350168 262.941839,65.2767701 C261.333514,64.6916619 259.432766,63.3751686 259.432766,60.6690434 C259.432766,57.9629182 261.552831,56.1344552 263.819107,56.1344552 C264.696375,56.1344552 265.208115,56.2807322 265.646749,56.4270092 C266.597123,56.7195633 267.181968,56.8658404 267.986131,56.8658404 C269.959984,56.8658404 270.910358,56.5001478 271.933838,54.5254077 L272.299366,53.6477455 L258.921026,22.6370132 C258.628603,21.905628 258.33618,20.8085502 258.33618,20.077165 C258.33618,16.9322087 260.748668,14.7380531 263.819107,14.7380531 C266.597123,14.7380531 268.205448,16.273962 269.155822,18.9069487 L277.636081,41.7261668 L285.823918,18.9800872 C286.701186,16.6396546 288.309511,14.7380531 291.160633,14.7380531 C294.011755,14.7380531 296.424242,16.9322087 296.424242,19.8577495 C296.424242,20.7354117 296.13182,21.9787665 295.912503,22.4907362 L282.24174,55.3299314 C278.951984,63.3020301 275.662228,66.3007094 269.00961,66.3007094 Z M41.1585008,19.9184683 L41.1585008,49.2704741 C41.1585008,52.3422919 38.6729075,54.8290016 35.6024687,54.8290016 C32.5320299,54.8290016 30.0464366,52.3422919 30.0464366,49.2704741 L30.0464366,48.7585045 C27.3415263,52.4154304 23.6131363,55.1215557 17.8377872,55.1215557 C8.69957654,55.1215557 0,47.9539808 0,34.8621858 L0,34.7159087 C0,21.6241137 8.55336516,14.4565388 17.8377872,14.4565388 C23.7593477,14.4565388 27.4146319,17.162664 30.0464366,20.3076204 L30.0464366,19.9184683 C30.0464366,16.8466504 32.5320299,14.3599408 35.6024687,14.3599408 C38.6729075,14.3599408 41.1585008,16.8466504 41.1585008,19.9184683 Z M20.6889089,23.8914078 C15.4984053,23.8914078 11.1120641,28.133442 11.1120641,34.7159087 L11.1120641,34.8621858 C11.1120641,41.371514 15.4984053,45.6866866 20.6889089,45.6866866 C25.8794125,45.6866866 30.192648,41.371514 30.192648,34.8621858 L30.192648,34.7159087 C30.192648,28.2065805 25.8794125,23.8914078 20.6889089,23.8914078 Z" id="Combined-Shape"></path>
                </g>
                <g id="icon" transform="translate(3.000000, 3.000000)">
                    <path d="M0,73.6952 C0,76.7374 2.4486,79.186 5.4908,79.186 L19.9598,79.186 C22.4084,79.186 24.4118,77.1826 24.4118,74.734 C24.4118,72.2854 22.4084,70.3562 19.9598,70.3562 L10.8332,70.3562 L10.8332,8.8298 L19.9598,8.8298 C22.4084,8.8298 24.4118,6.9006 24.4118,4.452 C24.4118,2.0034 22.4084,0 19.9598,0 L5.4908,0 C2.4486,0 0,2.4486 0,5.4908 L0,73.6952 Z" id="bracket-left" fill="#1789FC"></path>
                    <path d="M65,73.6952 C65,76.7374 67.4486,79.186 70.4908,79.186 L84.9598,79.186 C87.4084,79.186 89.4118,77.1826 89.4118,74.734 C89.4118,72.2854 87.4084,70.3562 84.9598,70.3562 L75.8332,70.3562 L75.8332,8.8298 L84.9598,8.8298 C87.4084,8.8298 89.4118,6.9006 89.4118,4.452 C89.4118,2.0034 87.4084,0 84.9598,0 L70.4908,0 C67.4486,0 65,2.4486 65,5.4908 L65,73.6952 Z" id="bracket-right" fill="#1789FC" transform="translate(77.205900, 39.593000) scale(-1, 1) translate(-77.205900, -39.593000) "></path>
                    <path d="M28,61.4172 C28,64.5336 30.5228,67.0564 33.6392,67.0564 C36.7556,67.0564 39.2784,64.5336 39.2784,61.4172 L39.2784,54.9618 L43.8046,50.8808 L53.6732,64.4594 C55.0088,66.3144 56.3444,67.0564 58.5704,67.0564 C61.39,67.0564 63.8386,64.9788 63.8386,61.9366 C63.8386,60.6752 63.3934,59.6364 62.4288,58.3008 L51.8182,43.9802 L60.7222,36.3376 C62.2804,34.8536 63.3192,33.3696 63.3192,31.4404 C63.3192,28.8434 61.39,26.3948 58.3478,26.3948 C56.3444,26.3948 55.0088,27.3594 53.3764,28.9176 L39.2784,42.2736 L39.2784,17.6392 C39.2784,14.5228 36.7556,12 33.6392,12 C30.5228,12 28,14.5228 28,17.6392 L28,61.4172 Z" id="k" fill="#302E64"></path>
                </g>
            </g>
        </g>
    </g>
</svg>