<?xml version="1.0" encoding="UTF-8"?>
<svg width="95px" height="86px" viewBox="0 0 95 86" version="1.1" xmlns="http://www.w3.org/2000/svg" xmlns:xlink="http://www.w3.org/1999/xlink">
    <!-- Generator: Sketch 42 (36781) - http://www.bohemiancoding.com/sketch -->
    <title>logo-letter</title>
    <desc>Created with Sketch.</desc>
    <defs></defs>
    <g id="Page-1" stroke="none" stroke-width="1" fill="none" fill-rule="evenodd">
        <g id="branding" transform="translate(-434.000000, -436.000000)">
            <g id="icon" transform="translate(434.000000, 437.000000)">
                <path d="M3,76.6952 C3,79.7374 5.4486,82.186 8.4908,82.186 L22.9598,82.186 C25.4084,82.186 27.4118,80.1826 27.4118,77.734 C27.4118,75.2854 25.4084,73.3562 22.9598,73.3562 L13.8332,73.3562 L13.8332,11.8298 L22.9598,11.8298 C25.4084,11.8298 27.4118,9.9006 27.4118,7.452 C27.4118,5.0034 25.4084,3 22.9598,3 L8.4908,3 C5.4486,3 3,5.4486 3,8.4908 L3,76.6952 Z" id="bracket-left" fill="#1789FC"></path>
                <path d="M68,76.6952 C68,79.7374 70.4486,82.186 73.4908,82.186 L87.9598,82.186 C90.4084,82.186 92.4118,80.1826 92.4118,77.734 C92.4118,75.2854 90.4084,73.3562 87.9598,73.3562 L78.8332,73.3562 L78.8332,11.8298 L87.9598,11.8298 C90.4084,11.8298 92.4118,9.9006 92.4118,7.452 C92.4118,5.0034 90.4084,3 87.9598,3 L73.4908,3 C70.4486,3 68,5.4486 68,8.4908 L68,76.6952 Z" id="bracket-right" fill="#1789FC" transform="translate(80.205900, 42.593000) scale(-1, 1) translate(-80.205900, -42.593000) "></path>
                <path d="M31,64.4172 C31,67.5336 33.5228,70.0564 36.6392,70.0564 C39.7556,70.0564 42.2784,67.5336 42.2784,64.4172 L42.2784,57.9618 L46.8046,53.8808 L56.6732,67.4594 C58.0088,69.3144 59.3444,70.0564 61.5704,70.0564 C64.39,70.0564 66.8386,67.9788 66.8386,64.9366 C66.8386,63.6752 66.3934,62.6364 65.4288,61.3008 L54.8182,46.9802 L63.7222,39.3376 C65.2804,37.8536 66.3192,36.3696 66.3192,34.4404 C66.3192,31.8434 64.39,29.3948 61.3478,29.3948 C59.3444,29.3948 58.0088,30.3594 56.3764,31.9176 L42.2784,45.2736 L42.2784,20.6392 C42.2784,17.5228 39.7556,15 36.6392,15 C33.5228,15 31,17.5228 31,20.6392 L31,64.4172 Z" id="k" fill="#302E64"></path>
            </g>
        </g>
    </g>
</svg>